<?xml version="1.0" encoding="utf-8"?>
<!-- Generator: Adobe Illustrator 18.1.1, SVG Export Plug-In . SVG Version: 6.00 Build 0)  -->
<!DOCTYPE svg PUBLIC "-//W3C//DTD SVG 1.1//EN" "http://www.w3.org/Graphics/SVG/1.1/DTD/svg11.dtd">
<svg version="1.1" id="ART" xmlns="http://www.w3.org/2000/svg" xmlns:xlink="http://www.w3.org/1999/xlink" x="0px" y="0px"
	 viewBox="0 0 139.37 96.833" enable-background="new 0 0 139.37 96.833" xml:space="preserve">
<path fill="#CD337A" d="M13.07,29.408c-4.871,0.88-9.036-0.743-9.032-7.76L4.036,8.14H0V6.212h4.038l-0.002-5.49l2.19-0.483
	l0.002,5.975l8.375-0.002v1.926L6.229,8.14v13.508c-0.002,3.553,0.743,6.883,6.491,5.875l2.234-0.392l0.35,1.881L13.07,29.408z"/>
<path fill="#CD337A" d="M38.808,29.758l-1.707-0.831c-1.052-0.524-2.016-0.7-3.555-0.438l-5.393,1.008
	c-6.36,1.184-10.13-2.059-10.13-6.44c0-5.268,4.343-6.934,9.119-6.934l7.805,0.002v-2.983c0.002-4.254-2.45-5.88-5.962-5.878
	c-1.49-0.002-3.156,0.132-4.909,0.569l-4.78,1.184l-0.438-1.883l5-1.316c1.662-0.438,3.467-0.616,5.174-0.613
	c4.429-0.003,8.025,2.191,8.025,7.937v13.593l2.586,1.493L38.808,29.758z M34.949,17.875h-7.846c-4.39,0-6.932,1.494-6.932,4.953
	c0,3.554,2.896,5.839,7.981,4.914l6.794-1.227L34.949,17.875z"/>
<path fill="#CD337A" d="M59.86,29.32l-6.887-15.128l-4.34,3.861c-2.065,1.798-3.644,2.938-3.644,6.138v5.131l-2.1-0.001L42.89,0.479
	L44.994,0v19.237l13.46-13.509h2.853l-6.712,6.797l7.72,16.796L59.86,29.32z"/>
<path fill="#CD337A" d="M83.115,18.49H65.13c0.221,5.876,4.122,9.122,8.509,9.12c1.575,0.002,2.938-0.131,4.738-0.566l4.777-1.187
	l0.438,1.797l-5,1.319c-1.577,0.395-3.379,0.57-5.038,0.57c-6.491,0-10.662-4.913-10.664-12.107
	c0.002-7.76,5.095-12.322,10.704-12.322c6.271,0,10.614,4.296,10.438,12.369C84.034,18.095,83.766,18.489,83.115,18.49z
	 M73.552,6.955c-4.779,0.002-8.201,3.726-8.42,9.65l16.798-0.001C81.928,11.123,79.34,6.955,73.552,6.955z"/>
<g>
	<path fill="#777679" d="M2.025,80.047h1.311v12.89h3.289v1.232h-4.6V80.047z"/>
	<path fill="#777679" d="M7.938,80.047h4.962v1.229h-3.65v5.167h3.309v1.229H9.249v5.264h3.712v1.232H7.938V80.047z"/>
	<path fill="#777679" d="M14.01,80.047h1.352l2.159,11.64l2.179-11.64h1.312L18.167,94.25h-1.332L14.01,80.047z"/>
	<path fill="#777679" d="M21.679,87.33v-0.444c0-4.659,1.472-7.02,3.47-7.02c1.996,0,3.449,2.36,3.449,7.02v0.444
		c0,4.661-1.453,7.022-3.449,7.022C23.15,94.352,21.679,91.991,21.679,87.33z M27.286,87.33v-0.444c0-3.974-0.928-5.809-2.138-5.809
		c-1.211,0-2.14,1.835-2.14,5.809v0.444c0,3.975,0.929,5.811,2.14,5.811C26.358,93.141,27.286,91.304,27.286,87.33z"/>
	<path fill="#777679" d="M30.413,80.047h1.312l3.895,10.632V80.047h1.271V94.17h-1.231l-3.995-10.935V94.17h-1.251V80.047z"/>
	<path fill="#777679" d="M38.666,87.33v-0.444c0-4.659,1.473-7.02,3.471-7.02c1.997,0,3.45,2.36,3.45,7.02v0.444
		c0,4.661-1.453,7.022-3.45,7.022C40.139,94.352,38.666,91.991,38.666,87.33z M44.275,87.33v-0.444c0-3.974-0.929-5.809-2.139-5.809
		c-1.211,0-2.139,1.835-2.139,5.809v0.444c0,3.975,0.928,5.811,2.139,5.811C43.347,93.141,44.275,91.304,44.275,87.33z"/>
	<path fill="#777679" d="M47.402,80.047h1.957c1.251,0,2.301,0.383,3.007,1.108c0.727,0.707,1.13,1.776,1.13,3.147v0.062
		c0,1.937-0.848,3.287-2.22,3.893l2.481,5.913h-1.472l-2.301-5.529c-0.182,0.04-0.384,0.04-0.586,0.04h-0.684v5.489h-1.312V80.047z
		 M49.381,87.51c1.693,0,2.804-1.066,2.804-3.125v-0.062c0-2.139-1.171-3.066-2.864-3.066h-0.605v6.253H49.381z"/>
	<path fill="#777679" d="M54.949,87.311v-0.404c0-4.66,1.997-7.001,4.399-7.001c0.745,0,1.271,0.161,1.775,0.424v1.412
		c-0.604-0.363-1.15-0.586-1.755-0.586c-1.655,0-3.087,1.897-3.087,5.729v0.444c0,4.035,1.392,5.79,3.067,5.79
		c0.303,0,0.483-0.02,0.766-0.141v-5.065h-1.876v-1.188h3.087v7.082c-0.767,0.385-1.292,0.525-2.059,0.525
		C56.907,94.332,54.949,92.051,54.949,87.311z"/>
	<path fill="#777679" d="M63.403,80.047h4.964v1.229h-3.652v5.167h3.31v1.229h-3.31v5.264h3.713v1.232h-5.024V80.047z"/>
	<path fill="#777679" d="M69.659,93.606v-1.414c0.948,0.586,1.693,0.869,2.4,0.869c1.069,0,1.796-0.688,1.796-1.857v-0.021
		c0-0.989-0.362-1.714-1.815-3.591c-1.837-2.36-2.361-3.188-2.361-4.56v-0.041c0-1.814,1.312-3.086,2.967-3.086
		c0.848,0,1.492,0.222,2.138,0.564v1.433c-0.767-0.505-1.412-0.747-2.078-0.747c-0.987,0-1.694,0.707-1.694,1.776v0.04
		c0,0.908,0.363,1.574,1.815,3.409c1.776,2.18,2.341,3.247,2.341,4.762v0.021c0,1.916-1.331,3.147-3.046,3.147
		C71.252,94.311,70.485,94.049,69.659,93.606z"/>
	<path fill="#777679" d="M77.932,81.277h-2.139v-1.229h5.609v1.229h-2.159V94.17h-1.312V81.277z"/>
	<path fill="#777679" d="M82.794,80.047h1.957c1.251,0,2.301,0.383,3.007,1.108c0.726,0.707,1.129,1.776,1.129,3.147v0.062
		c0,1.937-0.847,3.287-2.22,3.893l2.482,5.913h-1.474l-2.299-5.529c-0.183,0.04-0.384,0.04-0.586,0.04h-0.686v5.489h-1.312V80.047z
		 M84.773,87.51c1.693,0,2.803-1.066,2.803-3.125v-0.062c0-2.139-1.17-3.066-2.864-3.066h-0.605v6.253H84.773z"/>
	<path fill="#777679" d="M90.704,80.047h4.963v1.229h-3.652v5.167h3.309v1.229h-3.309v5.264h3.713v1.232h-5.023V80.047z"/>
	<path fill="#777679" d="M97.382,80.047h1.312v12.89h3.288v1.232h-4.6V80.047z"/>
	<path fill="#777679" d="M107.552,81.54l-1.473,0.767v-1.411l1.715-0.868h1.049V94.17h-1.291V81.54z"/>
	<path fill="#777679" d="M111.425,92.212h1.654v1.957h-1.654V92.212z"/>
	<path fill="#777679" d="M114.774,93.969v-1.273c0.424,0.203,0.947,0.404,1.675,0.404c1.352,0,2.34-1.351,2.34-3.369v-0.103
		c0-2.118-0.928-2.844-1.997-2.844c-0.545,0-0.868,0.101-1.251,0.262l-0.767-0.504l0.303-6.495h4.478v1.271h-3.43l-0.201,4.458
		c0.323-0.12,0.646-0.221,1.15-0.221c1.574,0,3.007,1.15,3.007,4.055v0.101c0,2.784-1.514,4.641-3.572,4.641
		C115.722,94.352,115.178,94.17,114.774,93.969z"/>
	<path fill="#777679" d="M121.756,83.517h1.251v1.473c0.403-0.887,1.008-1.654,2.058-1.654c1.09,0,1.675,0.746,2.018,1.654
		c0.384-0.786,1.05-1.654,2.239-1.654c1.352,0,2.36,1.109,2.36,3.207v7.627h-1.25v-7.445c0-1.493-0.545-2.28-1.433-2.28
		c-0.929,0-1.654,0.948-1.654,2.4v7.325h-1.252v-7.445c0-1.493-0.544-2.28-1.432-2.28c-0.928,0-1.654,0.948-1.654,2.4v7.325h-1.251
		V83.517z"/>
	<path fill="#777679" d="M133.781,96.43v-1.23c0.727,0.283,1.634,0.484,2.26,0.484c1.331,0,2.059-0.605,2.059-2.02v-2.098
		c-0.403,1.049-1.07,2.02-2.14,2.02c-1.372,0-2.623-1.636-2.623-5.046v-0.161c0-3.389,1.251-5.043,2.623-5.043
		c1.069,0,1.736,0.968,2.14,2.018v-1.837h1.27v10.166c0,1.053-0.283,1.799-0.807,2.322c-0.545,0.564-1.394,0.826-2.462,0.826
		C135.294,96.832,134.508,96.691,133.781,96.43z M138.14,88.54v-0.141c0-2.503-0.929-3.893-1.837-3.893
		c-0.927,0-1.715,1.37-1.715,3.893v0.121c0,2.541,0.788,3.894,1.715,3.894C137.211,92.414,138.14,91.022,138.14,88.54z"/>
</g>
<path fill="#777679" d="M22.1,67.057l-1.708-0.834c-1.052-0.525-2.018-0.702-3.554-0.439l-5.396,1.008
	c-6.354,1.186-10.128-2.059-10.126-6.449c-0.002-5.26,4.342-6.929,9.122-6.929h7.806v-2.982c-0.001-4.252-2.456-5.872-5.967-5.874
	c-1.492,0.002-3.154,0.13-4.91,0.572l-4.778,1.184l-0.442-1.89l5.003-1.312c1.669-0.441,3.465-0.617,5.172-0.617
	c4.433,0,8.026,2.195,8.026,7.937v13.601l2.588,1.489L22.1,67.057z M18.243,55.169l-7.851-0.002c-4.384,0-6.927,1.494-6.929,4.96
	c0.003,3.551,2.897,5.831,7.978,4.911l6.801-1.229V55.169z"/>
<path fill="#777679" d="M41.967,46.138l-4.694-1.272c-0.832-0.22-2.104-0.393-3.156-0.393c-5.439-0.002-8.377,4.383-8.377,10.215
	c0,5.837,3.333,10.262,8.552,10.262c1.051,0.001,2.19-0.172,2.981-0.393l4.648-1.227l0.437,1.794l-4.646,1.273
	c-0.788,0.223-2.498,0.484-3.51,0.484c-6.579,0-10.699-5.435-10.699-12.193c0-6.755,4.299-12.193,10.697-12.193
	c1.317,0.002,2.724,0.176,3.642,0.442l4.604,1.317L41.967,46.138z"/>
<path fill="#777679" d="M57.038,66.709c-4.865,0.875-9.031-0.75-9.031-7.769V45.437l-4.041-0.002v-1.931h4.04l0.001-5.489
	l2.188-0.483l-0.002,5.974h8.38v1.932l-8.378-0.001V58.94c0,3.554,0.749,6.887,6.491,5.877l2.238-0.395l0.354,1.889L57.038,66.709z"
	/>
<path fill="#777679" d="M64.058,39.399c-1.141,0-1.755-0.787-1.756-1.795c0.001-1.096,0.614-1.844,1.755-1.844
	c1.14,0,1.756,0.748,1.754,1.844C65.813,38.612,65.196,39.399,64.058,39.399z M62.998,66.62v-23.86l2.242-0.001V66.62H62.998z"/>
<path fill="#777679" d="M79.351,66.884c-6.751,0-10.7-5.437-10.7-12.193c0-6.799,4.126-12.193,10.883-12.193
	c6.707,0,10.697,5.439,10.7,12.193C90.232,61.489,86.238,66.884,79.351,66.884z M79.351,44.474
	c-5.52-0.001-8.456,4.385-8.456,10.217c0,5.833,3.156,10.262,8.639,10.263c5.435,0,8.505-4.343,8.506-10.265
	C88.039,48.859,84.884,44.476,79.351,44.474z"/>
<path fill="#777679" d="M109.804,66.62V50.961c0-3.858-1.932-7.018-8.201-6.358l-5.923,0.615V66.62h-2.103V46.005
	c0-1.532,0.921-2.543,2.5-2.721l5.438-0.612c7.76-0.879,10.396,3.376,10.396,8.332V66.62H109.804z"/>
<g>
	<path fill="#777679" d="M119.288,45.028c0,0.392-0.069,0.749-0.207,1.071c-0.138,0.322-0.324,0.598-0.56,0.826
		s-0.509,0.406-0.819,0.532s-0.636,0.189-0.977,0.189c-0.378,0-0.725-0.066-1.039-0.2c-0.315-0.133-0.586-0.316-0.812-0.549
		c-0.226-0.233-0.403-0.51-0.531-0.83c-0.129-0.32-0.192-0.666-0.192-1.04c0-0.392,0.068-0.749,0.206-1.071
		c0.138-0.322,0.324-0.598,0.56-0.826c0.236-0.229,0.51-0.406,0.823-0.532c0.312-0.126,0.642-0.189,0.986-0.189
		c0.341,0,0.666,0.063,0.977,0.189c0.311,0.126,0.584,0.304,0.819,0.532s0.422,0.504,0.56,0.826
		C119.218,44.279,119.288,44.636,119.288,45.028z M118.727,45.028c0-0.317-0.051-0.609-0.153-0.875s-0.245-0.495-0.428-0.686
		c-0.182-0.191-0.394-0.339-0.637-0.444c-0.242-0.105-0.504-0.158-0.784-0.158c-0.284,0-0.549,0.053-0.794,0.158
		s-0.459,0.253-0.641,0.444s-0.324,0.42-0.427,0.686s-0.154,0.558-0.154,0.875c0,0.299,0.047,0.579,0.14,0.84
		c0.094,0.262,0.228,0.49,0.403,0.686c0.175,0.196,0.386,0.352,0.633,0.466s0.527,0.171,0.84,0.171c0.28,0,0.542-0.053,0.784-0.158
		c0.243-0.105,0.455-0.253,0.637-0.444c0.183-0.191,0.325-0.419,0.428-0.683S118.727,45.35,118.727,45.028z M116.208,46.526h-0.476
		v-2.898h1.099c0.35,0,0.613,0.065,0.791,0.196c0.177,0.131,0.266,0.343,0.266,0.637c0,0.261-0.072,0.453-0.217,0.574
		c-0.145,0.122-0.324,0.194-0.539,0.217l0.812,1.274h-0.539l-0.749-1.239h-0.448V46.526z M116.74,44.881
		c0.088,0,0.174-0.003,0.255-0.011c0.082-0.007,0.153-0.026,0.214-0.059s0.109-0.078,0.146-0.137
		c0.038-0.058,0.057-0.141,0.057-0.249c0-0.088-0.021-0.159-0.06-0.21c-0.04-0.051-0.09-0.091-0.15-0.119
		c-0.061-0.028-0.129-0.045-0.203-0.052c-0.075-0.007-0.147-0.011-0.217-0.011h-0.574v0.847H116.74z"/>
</g>
</svg>
